<?xml version="1.0" encoding="iso-8859-1"?>
<!-- Generator: Adobe Illustrator 16.0.0, SVG Export Plug-In . SVG Version: 6.00 Build 0)  -->
<!DOCTYPE svg PUBLIC "-//W3C//DTD SVG 1.1//EN" "http://www.w3.org/Graphics/SVG/1.1/DTD/svg11.dtd">
<svg version="1.1" id="Layer_1" xmlns="http://www.w3.org/2000/svg" xmlns:xlink="http://www.w3.org/1999/xlink" x="0px" y="0px"
	 width="66.392px" height="34.096px" viewBox="0 0 66.392 34.096" style="enable-background:new 0 0 66.392 34.096;"
	 xml:space="preserve">
<path d="M51.84,19.214c-2.287,2.518-7.312,3.552-9.48,1.44c-2.972,2.877-3.91,3.565-5.04,3.72c-1.245,0.22-2.495-0.624-2.76-1.561
	c-0.704,0.999-3.547,3.468-5.76,3.36c-2.07-0.268-2.741-1.813-2.88-3.48c-0.47-0.225-1.126-0.35-1.68-0.36
	c-0.478,3.447-4.478,8.197-7.92,8.16c-2.058-0.025-3.745-1.337-3.24-4.44c0.495-3.147,4.683-5.71,6.96-6.12
	c-0.277-0.715-1.902-1.715-4.08-2.16c2.303-0.867,4.99-3.055,5.16-6c0.205-3.055-0.607-3.805-1.56-3.96
	c-1.047-0.22-5.922,0.343-10.68,5.641c-4.742,5.327-7.805,16.327-5.04,17.52c1.548,0.558,3.298-0.942,3.84-3.24
	c0.583-2.202,2.771-9.827,3.601-11.88c0.795-1.947,3.295-6.76,7.439-6.96c-1.02,1.138-2.957,4.763-3.84,8.16
	c-0.992,3.478-3.805,17.228-11.04,17.04c-3.202-0.188-3.827-2.989-3.84-5.88c0.013-2.933,4.638-22.433,21.12-23.28
	c3.705-0.09,4.268,2.598,4.44,3.48c0.078,0.867-0.422,4.805-3.96,7.92c1.073,0.308,2.278,1.52,2.641,3.479
	c0.71,0.093,1.359,0.248,1.8,0.36c0.176-0.777,0.486-1.758,0.6-2.16c2.529-8.357,7.748-8.607,8.521-8.64
	c0.728,0.032,1.665,0.095,2.28,0.96l0.6-1.2c1.223-0.853,2.66-1.04,3.72-1.08c-1.122,5.29-2.872,10.603-3.24,11.76
	c-0.32,1.343,0.93,1.093,1.44,0.36c0.265-0.317,0.7-0.875,1.08-1.32c-0.928-1.964,0.785-3.635,2.16-3.479
	c0.528-0.793,0.997-1.526,1.32-2.04c0.93-1.49,4.368-6.115,6.72-8.28c0.835-0.96,1.71-0.397,1.92-0.12
	c0.29,0.223,0.478,1.348-1.44,3c-0.332,1.035-0.02,2.66,0.48,3.36c0.451,0.728,0.749,2.678,0.84,4.32
	c0.247-0.32,0.87-1.065,1.2-1.56c-0.04-1.397,0.647-2.647,2.16-3.12c0.516-0.853,0.922-1.398,1.2-1.92
	c0.976-1.482,4.226-6.295,6.48-8.52c0.933-0.9,1.808-0.337,2.04-0.12c0.393,0.407,0.33,0.97,0,1.32
	c-0.295,0.275-1.045,0.712-1.2,1.32c-0.407,0.955-0.095,3.268,0.36,3.96c0.545,0.808,0.795,2.87,0.72,4.44
	c-0.165,4.676-6.925,8.242-10.92,4.56C54.388,16.907,52.825,18.344,51.84,19.214z"/>
<path d="M31.32,29.774c4.067-1.867,17.255-7.555,26.16-7.8c-2.03,1.37-3.405,2.87-4.2,3.84c-3.705-0.22-12.33,0.28-19.44,4.92
	C32.45,30.844,31.888,30.657,31.32,29.774z"/>
<path style="fill:#FFFFFF;" d="M43.92,19.334c0.468,0.635,1.905,1.26,3.36,0.24c1.42-1.105,2.545-4.23,1.56-8.76
	c-0.89,0.905-3.077,3.78-3.6,5.04C45.7,16.594,45.888,19.157,43.92,19.334z"/>
<path style="fill:#FFFFFF;" d="M57.12,15.014c0.393,0.643,1.83,1.268,3.24,0.24c1.465-1.098,2.653-3.723,1.68-8.28
	c-0.902,0.933-2.777,3.62-3.36,4.92C59.2,12.594,59.013,14.844,57.12,15.014z"/>
<path style="fill:#FFFFFF;" d="M36.12,12.254c-1.232-0.598-3.67,0.277-5.4,4.44c-1.77,4.212-1.082,6.212-0.479,6.48
	c0.647,0.357,3.46-0.393,5.28-4.8C36.325,16.657,37.638,13.407,36.12,12.254z"/>
<path style="fill:#FFFFFF;" d="M20.4,22.214c0.05,1.192-1.2,6.255-4.32,6.24C14.325,28.469,14.7,23.344,20.4,22.214z"/>
</svg>
